<svg xmlns="http://www.w3.org/2000/svg" viewBox="0 0 100 100" width="100" height="100">
  <!-- Dark background circle -->
  <circle cx="50" cy="50" r="50" fill="#0F111A"/>

  <!-- Soccer ball white base circle -->
  <circle cx="50" cy="50" r="36" fill="#FFFFFF"/>

  <!-- Center pentagon (top) -->
  <polygon
    points="50,20 62,29 57,43 43,43 38,29"
    fill="#1a1a2e"
  />

  <!-- Pentagon bottom-left -->
  <polygon
    points="22,42 34,33 40,47 30,57 17,51"
    fill="#1a1a2e"
  />

  <!-- Pentagon bottom-right -->
  <polygon
    points="78,42 66,33 60,47 70,57 83,51"
    fill="#1a1a2e"
  />

  <!-- Pentagon right-bottom -->
  <polygon
    points="71,70 60,63 63,49 76,48 83,61"
    fill="#1a1a2e"
  />

  <!-- Pentagon left-bottom -->
  <polygon
    points="29,70 40,63 37,49 24,48 17,61"
    fill="#1a1a2e"
  />

  <!-- Center bottom pentagon -->
  <polygon
    points="50,80 39,71 43,57 57,57 61,71"
    fill="#1a1a2e"
  />
</svg>
